<?xml version="1.0" encoding="UTF-8"?>
<!DOCTYPE svg PUBLIC "-//W3C//DTD SVG 1.1//EN" "http://www.w3.org/Graphics/SVG/1.1/DTD/svg11.dtd">
<svg xmlns="http://www.w3.org/2000/svg" version="1.1" width="667px" height="171px" style="shape-rendering:geometricPrecision; text-rendering:geometricPrecision; image-rendering:optimizeQuality; fill-rule:evenodd; clip-rule:evenodd" xmlns:xlink="http://www.w3.org/1999/xlink">
<g><path style="opacity:1" fill="#fefefe" d="M 71.5,-0.5 C 80.5,-0.5 89.5,-0.5 98.5,-0.5C 137.486,8.31984 161.319,32.3198 170,71.5C 174.235,116.55 155.735,148.05 114.5,166C 109.044,167.527 103.711,169.027 98.5,170.5C 89.5,170.5 80.5,170.5 71.5,170.5C 32.5,161.5 8.5,137.5 -0.5,98.5C -0.5,89.5 -0.5,80.5 -0.5,71.5C 8.50201,32.498 32.502,8.49799 71.5,-0.5 Z"/></g>
<g><path style="opacity:0.945" fill="#233348" d="M 400.5,49.5 C 403.807,50.0508 407.14,50.3841 410.5,50.5C 410.666,54.5138 410.499,58.5138 410,62.5C 400.812,60.1791 396.645,63.8458 397.5,73.5C 401.5,73.5 405.5,73.5 409.5,73.5C 409.5,76.8333 409.5,80.1667 409.5,83.5C 405.5,83.5 401.5,83.5 397.5,83.5C 397.5,97.5 397.5,111.5 397.5,125.5C 393.167,125.5 388.833,125.5 384.5,125.5C 384.5,111.5 384.5,97.5 384.5,83.5C 381.167,83.5 377.833,83.5 374.5,83.5C 374.5,80.1667 374.5,76.8333 374.5,73.5C 377.833,73.5 381.167,73.5 384.5,73.5C 383.698,67.0713 384.864,61.0713 388,55.5C 391.556,51.97 395.722,49.97 400.5,49.5 Z"/></g>
<g><path style="opacity:0.968" fill="#233348" d="M 479.5,50.5 C 483.833,50.5 488.167,50.5 492.5,50.5C 492.5,75.5 492.5,100.5 492.5,125.5C 488.167,125.5 483.833,125.5 479.5,125.5C 479.5,100.5 479.5,75.5 479.5,50.5 Z"/></g>
<g><path style="opacity:1" fill="#468ff5" d="M 94.5,128.5 C 89.8333,128.5 85.1667,128.5 80.5,128.5C 80.8307,106.66 80.4973,84.9936 79.5,63.5C 71.1667,63.5 62.8333,63.5 54.5,63.5C 54.5,59.5 54.5,55.5 54.5,51.5C 76.1667,51.5 97.8333,51.5 119.5,51.5C 119.5,55.5 119.5,59.5 119.5,63.5C 111.167,63.5 102.833,63.5 94.5,63.5C 94.5,85.1667 94.5,106.833 94.5,128.5 Z"/></g>
<g><path style="opacity:0.92" fill="#233348" d="M 221.5,52.5 C 241.5,52.5 261.5,52.5 281.5,52.5C 281.5,56.5 281.5,60.5 281.5,64.5C 273.833,64.5 266.167,64.5 258.5,64.5C 258.5,84.8333 258.5,105.167 258.5,125.5C 253.833,125.5 249.167,125.5 244.5,125.5C 244.5,105.167 244.5,84.8333 244.5,64.5C 236.833,64.5 229.167,64.5 221.5,64.5C 221.5,60.5 221.5,56.5 221.5,52.5 Z"/></g>
<g><path style="opacity:0.897" fill="#233348" d="M 303.5,72.5 C 306.833,72.5 310.167,72.5 313.5,72.5C 313.826,76.8839 313.492,81.2172 312.5,85.5C 304.459,82.6742 298.625,85.0075 295,92.5C 294.5,103.495 294.333,114.495 294.5,125.5C 289.833,125.5 285.167,125.5 280.5,125.5C 280.825,108.256 280.492,91.0896 279.5,74C 283.821,73.501 288.154,73.3343 292.5,73.5C 292.687,75.5643 293.187,77.5643 294,79.5C 296.529,76.1151 299.696,73.7818 303.5,72.5 Z"/></g>
<g><path style="opacity:0.922" fill="#233348" d="M 332.5,72.5 C 340.779,70.9986 347.946,72.9986 354,78.5C 354.494,76.8659 354.66,75.1992 354.5,73.5C 359.167,73.5 363.833,73.5 368.5,73.5C 368.5,90.8333 368.5,108.167 368.5,125.5C 363.833,125.5 359.167,125.5 354.5,125.5C 354.662,123.473 354.495,121.473 354,119.5C 352.062,122.106 349.562,123.939 346.5,125C 326.616,127.784 316.616,119.117 316.5,99C 316.111,86.5963 321.444,77.763 332.5,72.5 Z M 337.5,83.5 C 345.923,81.457 351.423,84.457 354,92.5C 354.667,97.1667 354.667,101.833 354,106.5C 349.923,114.725 343.756,116.892 335.5,113C 329.824,106.785 328.324,99.6181 331,91.5C 332.305,88.0386 334.471,85.372 337.5,83.5 Z"/></g>
<g><path style="opacity:0.924" fill="#233348" d="M 431.5,72.5 C 440.083,70.7933 447.25,73.1266 453,79.5C 453.495,77.5273 453.662,75.5273 453.5,73.5C 457.833,73.5 462.167,73.5 466.5,73.5C 466.5,90.8333 466.5,108.167 466.5,125.5C 462.167,125.5 457.833,125.5 453.5,125.5C 453.663,123.143 453.497,120.81 453,118.5C 451.056,121.734 448.222,123.9 444.5,125C 424.616,127.784 414.616,119.118 414.5,99C 414.046,86.0432 419.712,77.2098 431.5,72.5 Z M 436.5,83.5 C 447.875,82.5369 453.542,87.8703 453.5,99.5C 452.81,111.385 446.81,116.218 435.5,114C 430.379,110.597 427.712,105.763 427.5,99.5C 427.538,92.2905 430.538,86.9571 436.5,83.5 Z"/></g>
<g><path style="opacity:0.914" fill="#233348" d="M 519.5,72.5 C 527.699,71.1001 534.865,73.1001 541,78.5C 541.494,76.8659 541.66,75.1992 541.5,73.5C 546.167,73.5 550.833,73.5 555.5,73.5C 555.91,93.2031 555.41,112.87 554,132.5C 551.474,139.026 546.974,143.526 540.5,146C 529.203,148.785 518.369,147.618 508,142.5C 508.288,139.209 508.788,135.875 509.5,132.5C 513.441,133.757 517.441,134.924 521.5,136C 537.311,138.856 543.811,132.356 541,116.5C 534.938,123.095 527.438,125.262 518.5,123C 507.196,118.661 501.862,110.328 502.5,98C 502.13,85.2451 507.797,76.7451 519.5,72.5 Z M 524.5,83.5 C 539.183,83.8202 544.35,91.1535 540,105.5C 535.021,112.99 528.521,114.49 520.5,110C 518.959,108.421 517.792,106.587 517,104.5C 515.89,98.5743 516.556,92.9077 519,87.5C 520.812,86.0229 522.645,84.6896 524.5,83.5 Z"/></g>
<g><path style="opacity:0.934" fill="#233348" d="M 581.5,72.5 C 589.699,71.1001 596.865,73.1001 603,78.5C 603.494,76.8659 603.66,75.1992 603.5,73.5C 607.833,73.5 612.167,73.5 616.5,73.5C 616.5,90.8333 616.5,108.167 616.5,125.5C 612.167,125.5 607.833,125.5 603.5,125.5C 603.662,123.473 603.495,121.473 603,119.5C 600.559,121.969 597.726,123.802 594.5,125C 575.556,127.233 565.556,118.733 564.5,99.5C 564.424,86.6073 570.091,77.6073 581.5,72.5 Z M 586.5,83.5 C 600.507,83.436 606.007,90.436 603,104.5C 599.173,115.166 592.34,117.666 582.5,112C 578.232,105.319 577.399,98.1521 580,90.5C 581.694,87.6424 583.861,85.309 586.5,83.5 Z"/></g>
<g><path style="opacity:0.933" fill="#233348" d="M 651.5,72.5 C 655.167,72.5 658.833,72.5 662.5,72.5C 662.5,76.8333 662.5,81.1667 662.5,85.5C 652.25,81.8733 645.75,85.2067 643,95.5C 642.5,105.494 642.334,115.494 642.5,125.5C 638.167,125.5 633.833,125.5 629.5,125.5C 629.777,108.139 629.444,90.8055 628.5,73.5C 632.833,73.5 637.167,73.5 641.5,73.5C 641.021,79.5978 642.354,80.4311 645.5,76C 647.727,75.059 649.727,73.8923 651.5,72.5 Z"/></g>
<g><path style="opacity:1" fill="#568edd" d="M 79.5,63.5 C 80.4973,84.9936 80.8307,106.66 80.5,128.5C 85.1667,128.5 89.8333,128.5 94.5,128.5C 89.6946,129.487 84.6946,129.821 79.5,129.5C 79.5,107.5 79.5,85.5 79.5,63.5 Z"/></g>
</svg>
